<svg id="visual" viewBox="0 0 960 540" width="960" height="540" xmlns="http://www.w3.org/2000/svg" xmlns:xlink="http://www.w3.org/1999/xlink" version="1.1"><rect x="0" y="0" width="960" height="540" fill="#130e09"></rect><path d="M0 283L26.7 273.8C53.3 264.7 106.7 246.3 160 248.3C213.3 250.3 266.7 272.7 320 283.8C373.3 295 426.7 295 480 295.5C533.3 296 586.7 297 640 283.7C693.3 270.3 746.7 242.7 800 235.8C853.3 229 906.7 243 933.3 250L960 257L960 0L933.3 0C906.7 0 853.3 0 800 0C746.7 0 693.3 0 640 0C586.7 0 533.3 0 480 0C426.7 0 373.3 0 320 0C266.7 0 213.3 0 160 0C106.7 0 53.3 0 26.7 0L0 0Z" fill="#e39f1f"></path><path d="M0 232L26.7 220.3C53.3 208.7 106.7 185.3 160 183.3C213.3 181.3 266.7 200.7 320 212.2C373.3 223.7 426.7 227.3 480 229C533.3 230.7 586.7 230.3 640 225.8C693.3 221.3 746.7 212.7 800 209.2C853.3 205.7 906.7 207.3 933.3 208.2L960 209L960 0L933.3 0C906.7 0 853.3 0 800 0C746.7 0 693.3 0 640 0C586.7 0 533.3 0 480 0C426.7 0 373.3 0 320 0C266.7 0 213.3 0 160 0C106.7 0 53.3 0 26.7 0L0 0Z" fill="#e2a538"></path><path d="M0 215L26.7 211.2C53.3 207.3 106.7 199.7 160 193C213.3 186.3 266.7 180.7 320 181.2C373.3 181.7 426.7 188.3 480 183C533.3 177.7 586.7 160.3 640 159C693.3 157.7 746.7 172.3 800 184C853.3 195.7 906.7 204.3 933.3 208.7L960 213L960 0L933.3 0C906.7 0 853.3 0 800 0C746.7 0 693.3 0 640 0C586.7 0 533.3 0 480 0C426.7 0 373.3 0 320 0C266.7 0 213.3 0 160 0C106.7 0 53.3 0 26.7 0L0 0Z" fill="#e0ab4c"></path><path d="M0 159L26.7 157.3C53.3 155.7 106.7 152.3 160 147.2C213.3 142 266.7 135 320 132.5C373.3 130 426.7 132 480 128C533.3 124 586.7 114 640 120.5C693.3 127 746.7 150 800 159C853.3 168 906.7 163 933.3 160.5L960 158L960 0L933.3 0C906.7 0 853.3 0 800 0C746.7 0 693.3 0 640 0C586.7 0 533.3 0 480 0C426.7 0 373.3 0 320 0C266.7 0 213.3 0 160 0C106.7 0 53.3 0 26.7 0L0 0Z" fill="#dfb15f"></path><path d="M0 136L26.7 136.3C53.3 136.7 106.7 137.3 160 129C213.3 120.7 266.7 103.3 320 93.3C373.3 83.3 426.7 80.7 480 87.5C533.3 94.3 586.7 110.7 640 121C693.3 131.3 746.7 135.7 800 133.7C853.3 131.7 906.7 123.3 933.3 119.2L960 115L960 0L933.3 0C906.7 0 853.3 0 800 0C746.7 0 693.3 0 640 0C586.7 0 533.3 0 480 0C426.7 0 373.3 0 320 0C266.7 0 213.3 0 160 0C106.7 0 53.3 0 26.7 0L0 0Z" fill="#deb771"></path><path d="M0 81L26.7 83.5C53.3 86 106.7 91 160 88C213.3 85 266.7 74 320 70.5C373.3 67 426.7 71 480 68.2C533.3 65.3 586.7 55.7 640 56.7C693.3 57.7 746.7 69.3 800 79.2C853.3 89 906.7 97 933.3 101L960 105L960 0L933.3 0C906.7 0 853.3 0 800 0C746.7 0 693.3 0 640 0C586.7 0 533.3 0 480 0C426.7 0 373.3 0 320 0C266.7 0 213.3 0 160 0C106.7 0 53.3 0 26.7 0L0 0Z" fill="#dcbc82"></path><path d="M0 27L26.7 24.7C53.3 22.3 106.7 17.7 160 19C213.3 20.3 266.7 27.7 320 34.2C373.3 40.7 426.7 46.3 480 50.8C533.3 55.3 586.7 58.7 640 56C693.3 53.3 746.7 44.7 800 36.5C853.3 28.3 906.7 20.7 933.3 16.8L960 13L960 0L933.3 0C906.7 0 853.3 0 800 0C746.7 0 693.3 0 640 0C586.7 0 533.3 0 480 0C426.7 0 373.3 0 320 0C266.7 0 213.3 0 160 0C106.7 0 53.3 0 26.7 0L0 0Z" fill="#dbc294"></path></svg>