<?xml version="1.0" standalone="no"?>
<!DOCTYPE svg PUBLIC "-//W3C//DTD SVG 20010904//EN"
 "http://www.w3.org/TR/2001/REC-SVG-20010904/DTD/svg10.dtd">
<svg version="1.0" xmlns="http://www.w3.org/2000/svg"
 width="1024.000000pt" height="1024.000000pt" viewBox="0 0 1024.000000 1024.000000"
 preserveAspectRatio="xMidYMid meet">

<g transform="translate(0.000000,1024.000000) scale(0.100000,-0.100000)"
fill="#000000" stroke="none">
<path d="M6928 9076 c-118 -96 -251 -281 -354 -491 -145 -299 -210 -586 -249
-1120 -17 -226 -35 -1182 -24 -1264 9 -70 30 -81 159 -81 l107 0 -4 -47 c-2
-27 -15 -307 -28 -623 -26 -585 -34 -691 -61 -809 -29 -124 0 -202 94 -248 55
-27 62 -28 222 -28 185 0 213 8 257 75 l23 33 0 2303 c0 2291 0 2304 -20 2324
-31 31 -63 24 -122 -24z m17 -2824 c-3 -10 -61 -12 -262 -10 l-258 3 2 445 c4
871 57 1347 190 1684 69 176 162 337 281 489 l47 60 3 -1329 c1 -731 0 -1335
-3 -1342z m3 -928 c3 -934 18 -837 -133 -842 -216 -8 -250 20 -210 174 15 58
26 249 60 1059 9 209 18 386 21 393 3 10 34 12 131 10 l128 -3 3 -791z"/>
<path d="M6760 5710 c-26 -26 -26 -81 -2 -103 29 -26 77 -22 101 9 27 35 26
59 -4 89 -29 30 -68 32 -95 5z"/>
<path d="M6771 4837 c-79 -40 -21 -149 62 -118 54 21 55 101 2 121 -33 12 -35
12 -64 -3z"/>
<path d="M5225 8663 c-15 -16 -77 -98 -140 -183 -62 -85 -186 -252 -274 -369
-237 -318 -268 -393 -256 -626 6 -129 6 -131 -22 -185 -26 -52 -365 -544 -381
-554 -7 -4 -187 276 -264 413 -51 89 -51 142 -2 283 67 197 79 329 45 493 -70
325 -317 630 -584 720 -113 38 -206 31 -312 -21 -99 -50 -187 -162 -232 -297
-24 -75 -27 -96 -27 -242 -1 -195 18 -283 98 -450 109 -227 223 -331 504 -456
95 -42 146 -98 236 -260 138 -245 228 -405 263 -461 20 -34 31 -63 27 -70 -8
-13 -463 -655 -744 -1048 -399 -560 -405 -570 -405 -700 0 -95 17 -138 77
-199 81 -83 222 -107 325 -56 65 33 129 101 178 190 21 39 111 196 200 350 89
154 256 444 370 645 114 201 212 371 218 378 8 10 23 -12 62 -85 395 -747 715
-1328 765 -1391 54 -68 116 -102 198 -109 114 -10 217 50 265 155 31 68 30
177 -4 257 -33 80 -229 388 -845 1333 l-184 282 116 198 c360 609 329 568 488
646 168 82 191 107 521 571 305 428 315 443 315 471 0 27 -30 54 -62 54 -30 0
-41 -12 -153 -170 -318 -448 -485 -669 -545 -723 -28 -25 -93 -66 -145 -91
-152 -73 -200 -129 -382 -446 -33 -58 -152 -260 -263 -450 -112 -190 -242
-415 -290 -500 -48 -85 -136 -238 -195 -340 -59 -102 -213 -369 -342 -595
-130 -225 -250 -430 -267 -455 -85 -120 -256 -99 -290 35 -17 64 -6 113 41
190 41 67 418 605 613 875 69 96 207 288 305 425 98 138 194 273 215 300 20
28 79 111 132 185 52 74 171 243 265 375 94 132 179 258 191 281 33 64 44 147
32 239 -24 180 10 262 225 550 45 61 158 211 250 335 93 124 173 238 179 253
10 26 8 31 -17 53 -36 31 -60 30 -92 -3z m-1851 -162 c235 -117 422 -410 442
-691 8 -109 -6 -197 -56 -347 -44 -133 -49 -189 -25 -270 8 -28 84 -160 175
-307 l160 -257 -37 -54 c-21 -30 -41 -54 -44 -55 -3 0 -26 37 -51 83 -159 287
-282 505 -309 543 -45 66 -113 114 -261 187 -224 109 -337 235 -417 462 -73
206 -63 469 23 603 99 154 231 188 400 103z m1171 -2578 c38 -60 137 -214 220
-343 524 -813 545 -850 545 -923 0 -48 -20 -95 -55 -129 -23 -23 -37 -28 -77
-28 -94 0 -123 31 -255 270 -205 370 -469 858 -653 1203 -71 134 -71 116 1
239 l41 69 81 -125 c45 -69 113 -174 152 -233z"/>
<path d="M5214 8148 c-173 -243 -260 -373 -262 -394 -4 -34 11 -51 54 -60 39
-7 48 3 250 291 93 132 201 287 241 344 40 57 73 112 73 122 0 28 -36 59 -69
59 -26 0 -50 -30 -287 -362z"/>
<path d="M4470 3950 c-740 -28 -1578 -122 -2275 -256 -71 -13 -168 -32 -215
-41 -94 -17 -135 -34 -149 -61 -6 -11 -1 -79 15 -197 13 -99 24 -197 24 -217
l0 -38 -323 0 c-347 0 -358 -2 -360 -51 -1 -17 60 -108 201 -301 111 -152 202
-279 202 -281 0 -3 -86 -130 -190 -283 -189 -276 -208 -312 -178 -342 9 -9
193 -12 765 -12 l753 0 21 21 c24 24 24 47 -8 272 -9 64 -13 120 -11 123 13
13 576 78 888 103 593 48 913 61 1520 61 624 0 1011 -16 1555 -65 330 -30 778
-85 790 -97 3 -3 -4 -80 -15 -171 -25 -203 -25 -202 0 -227 20 -20 33 -20 775
-20 l754 0 11 21 c21 38 28 25 -307 521 l-65 97 129 173 c71 95 163 220 206
277 80 108 90 136 59 164 -17 15 -55 17 -345 17 -255 0 -327 3 -327 13 0 6 11
106 25 220 26 215 25 236 -13 256 -24 13 -335 77 -542 111 -529 88 -1213 161
-1880 201 -229 13 -1216 19 -1490 9z m1085 -110 c890 -27 1924 -137 2600 -278
l130 -27 -3 -60 c-2 -33 -25 -240 -52 -460 -27 -220 -57 -469 -66 -552 -10
-84 -21 -157 -24 -163 -5 -8 -25 -7 -69 5 -162 42 -521 103 -821 139 -1301
158 -2779 165 -4060 20 -356 -40 -666 -88 -881 -135 -79 -18 -157 -32 -174
-33 l-30 -1 -12 90 c-33 234 -143 1138 -140 1141 18 18 722 135 1102 183 908
115 1680 155 2500 131z m-3665 -822 c0 -7 9 -85 20 -173 11 -88 34 -268 50
-400 23 -189 33 -243 47 -256 10 -10 79 -40 153 -68 179 -67 293 -116 297
-127 2 -5 -211 -9 -532 -9 -294 0 -535 3 -535 6 0 4 77 118 170 254 94 136
170 256 170 265 0 10 -10 31 -23 47 -13 15 -72 96 -132 178 -60 83 -133 183
-162 223 l-54 72 266 0 c205 0 265 -3 265 -12z m6990 5 c0 -5 -77 -109 -171
-233 -221 -293 -204 -266 -191 -294 6 -13 83 -130 172 -260 89 -131 160 -239
158 -241 -2 -2 -245 -5 -540 -7 -296 -2 -534 0 -530 4 8 8 292 126 379 158 34
12 70 31 79 41 18 21 28 86 79 524 14 121 28 241 31 268 l7 47 263 0 c145 0
264 -3 264 -7z m-6260 -755 c0 -2 7 -41 15 -88 8 -47 15 -97 15 -112 l0 -27
-102 48 c-57 27 -140 63 -186 82 -47 19 -77 36 -70 40 12 6 80 19 243 48 53 9
85 13 85 9z m5120 -13 c90 -14 172 -30 214 -42 14 -4 -6 -16 -70 -43 -49 -20
-134 -58 -188 -84 -55 -25 -101 -44 -103 -42 -4 4 12 145 23 199 7 32 2 31
124 12z"/>
<path d="M5707 3414 c-25 -66 -82 -211 -126 -324 l-80 -205 62 -6 c34 -4 65
-5 68 -3 3 2 16 31 28 64 l22 61 122 -3 121 -3 22 -65 21 -65 67 -3 c61 -3 67
-1 62 15 -3 10 -34 113 -70 228 -57 189 -127 407 -130 412 0 1 -33 4 -72 8
l-71 7 -46 -118z m123 -61 c0 -10 14 -65 30 -123 17 -58 30 -108 30 -112 0 -5
-36 -8 -80 -8 -44 0 -80 3 -80 8 0 4 19 62 42 130 38 113 58 147 58 105z"/>
<path d="M4420 3513 c-14 -3 -28 -8 -32 -12 -5 -4 -3 -147 4 -319 l12 -312 64
0 64 0 -7 193 c-4 105 -8 203 -10 216 -2 12 -5 66 -6 120 -1 53 -4 102 -6 109
-5 12 -34 14 -83 5z"/>
<path d="M4780 3418 c0 -57 -3 -201 -7 -320 l-6 -218 66 0 67 0 2 218 3 217
42 -65 c22 -36 85 -134 139 -217 l98 -153 63 0 63 0 2 295 c1 162 2 305 2 318
1 20 -4 22 -61 25 l-63 3 0 -206 c0 -113 -3 -205 -7 -205 -5 0 -23 26 -42 58
-19 31 -77 123 -128 205 l-95 147 -69 0 -69 0 0 -102z"/>
<path d="M3765 3480 c-3 -6 -2 -70 4 -143 6 -72 16 -213 22 -312 6 -99 14
-183 18 -187 6 -6 400 17 407 25 2 2 1 27 -3 56 l-6 54 -101 -7 c-56 -4 -117
-9 -137 -13 -35 -5 -37 -4 -43 29 -6 34 -36 428 -36 481 0 26 -1 27 -59 27
-33 0 -63 -5 -66 -10z"/>
<path d="M6340 3474 c0 -9 -11 -140 -25 -292 -14 -152 -26 -290 -28 -307 l-2
-30 61 -3 62 -3 6 53 c3 29 11 112 16 183 6 72 15 177 20 235 5 58 9 122 10
143 l0 37 -60 0 c-48 0 -60 -3 -60 -16z"/>
<path d="M3428 3453 c-36 -4 -38 -6 -38 -41 0 -20 7 -95 15 -165 9 -71 16
-167 18 -214 l2 -85 -35 -29 c-28 -24 -44 -29 -86 -29 -64 0 -97 23 -113 82
-7 24 -22 130 -35 236 -13 106 -26 195 -30 199 -9 9 -99 4 -110 -7 -11 -11 41
-453 58 -494 35 -85 124 -136 234 -136 84 0 172 44 211 105 16 26 32 63 36 83
5 31 -18 291 -41 460 -6 45 -1 44 -86 35z"/>
<path d="M6716 3383 c-4 -38 -20 -180 -37 -317 -16 -137 -28 -251 -26 -252 1
-1 28 -4 60 -7 39 -3 60 -1 62 7 1 6 8 61 15 121 7 61 14 112 16 114 2 2 28 0
58 -3 l55 -7 29 -77 c16 -42 37 -101 47 -130 18 -56 18 -56 113 -67 l53 -6
-17 38 c-9 21 -31 76 -49 123 -18 47 -36 93 -40 102 -5 13 2 19 35 29 99 30
151 169 100 269 -25 48 -60 74 -130 93 -55 16 -228 37 -299 37 l-39 0 -6 -67z
m291 -69 c49 -10 73 -38 73 -85 0 -30 -7 -47 -26 -66 -25 -25 -29 -25 -125
-21 -55 3 -102 7 -105 10 -3 3 -2 45 2 93 l7 88 71 -6 c39 -4 85 -9 103 -13z"/>
<path d="M7365 3357 c8 -20 51 -116 96 -214 l81 -178 -12 -85 c-25 -184 -25
-169 1 -174 13 -3 40 -7 60 -11 l37 -5 12 102 c16 140 22 160 67 215 58 71
144 181 187 238 l38 50 -68 13 c-40 8 -69 10 -73 4 -26 -39 -166 -222 -171
-222 -3 0 -31 63 -63 139 -32 77 -65 142 -72 145 -8 3 -41 8 -74 12 l-61 7 15
-36z"/>
<path d="M2543 3340 c-153 -32 -233 -150 -219 -327 12 -153 64 -251 161 -299
73 -35 181 -37 249 -4 84 40 146 133 146 219 l0 32 -62 -3 -63 -3 -6 -37 c-8
-50 -31 -82 -75 -103 -74 -35 -160 1 -197 84 -29 62 -31 210 -4 259 51 94 198
95 237 3 11 -28 17 -31 41 -26 105 20 101 14 65 91 -33 71 -91 108 -186 118
-25 2 -64 1 -87 -4z"/>
</g>
</svg>
