<?xml version="1.0" standalone="no"?>
<!DOCTYPE svg PUBLIC "-//W3C//DTD SVG 20010904//EN"
 "http://www.w3.org/TR/2001/REC-SVG-20010904/DTD/svg10.dtd">
<svg version="1.0" xmlns="http://www.w3.org/2000/svg"
 width="1350.000000pt" height="400.000000pt" viewBox="0 0 1350.000000 400.000000"
 preserveAspectRatio="xMidYMid meet">

<g transform="translate(0.000000,400.000000) scale(0.100000,-0.100000)"
fill="currentcolor" stroke="none">
<path d="M9524 3422 c-7 -4 -32 -36 -56 -72 -25 -36 -116 -168 -202 -294 -87
-127 -165 -244 -174 -260 -13 -25 -16 -57 -14 -169 2 -112 -1 -144 -14 -170
-34 -65 -346 -502 -359 -502 -26 0 -281 375 -301 443 -19 61 -18 102 6 217 11
53 20 125 20 159 0 68 -27 183 -61 261 -59 135 -186 277 -298 333 -118 59
-219 52 -297 -20 -61 -56 -93 -126 -106 -234 -26 -203 62 -445 217 -598 67
-65 150 -109 261 -137 133 -33 140 -40 296 -324 75 -138 137 -259 138 -271 0
-11 -122 -196 -272 -410 -404 -579 -371 -528 -372 -577 -1 -54 24 -94 71 -114
49 -20 92 -10 130 30 17 17 120 178 228 357 109 179 253 413 320 521 68 107
131 211 140 230 10 19 90 150 177 291 173 280 180 287 284 311 113 27 129 41
240 210 269 407 315 482 312 506 -2 17 -10 27 -24 29 -17 2 -51 -42 -193 -252
-94 -140 -175 -257 -180 -260 -4 -3 -23 10 -41 29 l-33 34 50 78 c28 43 107
165 177 272 69 107 126 198 126 202 0 10 -29 39 -40 39 -15 0 -71 -76 -224
-302 -81 -119 -151 -220 -157 -224 -12 -7 -69 43 -69 60 0 12 39 73 222 349
115 174 135 218 102 231 -19 7 -16 7 -30 -2z"/>
<path d="M10192 3204 c-45 -55 -132 -217 -169 -316 -38 -100 -77 -255 -93
-373 -13 -92 -26 -795 -16 -849 l7 -36 74 0 c65 0 75 -2 75 -17 0 -10 -4 -65
-10 -123 -5 -58 -16 -190 -24 -295 -9 -104 -20 -243 -26 -308 -12 -134 -4
-163 53 -197 40 -25 73 -25 113 -1 68 42 64 -44 64 1314 0 735 -4 1228 -9
1232 -5 3 -23 -11 -39 -31z"/>
<path d="M825 2770 c-379 -50 -603 -403 -582 -915 10 -219 52 -369 144 -507
161 -244 484 -339 800 -237 120 39 242 140 315 260 49 80 100 223 96 268 l-3
36 -153 3 -153 3 -15 -38 c-57 -142 -114 -216 -196 -257 -64 -32 -176 -36
-254 -9 -98 33 -188 151 -230 303 -27 95 -27 386 0 485 40 147 117 255 214
297 65 29 176 35 238 14 106 -36 167 -103 213 -235 l27 -76 143 -3 c159 -3
171 1 171 53 0 46 -59 211 -100 280 -73 121 -211 222 -354 259 -74 20 -232 27
-321 16z"/>
<path d="M1960 2721 c-13 -26 -13 -905 0 -1058 6 -65 20 -144 35 -190 60 -191
206 -327 405 -380 102 -27 340 -24 443 5 219 62 346 191 411 417 19 66 20 104
24 633 2 424 0 567 -9 578 -16 19 -281 21 -297 1 -7 -8 -12 -191 -14 -547 -3
-528 -4 -536 -26 -600 -32 -90 -78 -149 -143 -185 -52 -29 -59 -30 -174 -30
-104 0 -125 3 -160 22 -52 28 -102 77 -126 125 -47 92 -49 121 -49 671 0 338
-4 525 -10 538 -10 17 -23 19 -155 19 -132 0 -145 -2 -155 -19z"/>
<path d="M3782 2728 c-9 -9 -12 -203 -12 -810 0 -778 0 -798 19 -808 27 -14
935 -14 962 0 17 10 19 22 19 129 0 87 -4 122 -13 130 -9 7 -118 12 -333 13
l-319 3 -3 664 c-1 470 -5 668 -13 678 -15 18 -289 19 -307 1z"/>
<path d="M5131 2731 c-11 -7 -14 -145 -18 -795 -4 -711 -3 -789 11 -812 16
-24 19 -24 152 -24 74 0 144 5 155 10 19 10 19 30 19 805 0 708 -2 795 -16
809 -12 13 -41 16 -152 16 -75 0 -143 -4 -151 -9z"/>
<path d="M10772 2728 c-9 -9 -12 -203 -12 -810 0 -778 0 -798 19 -808 25 -13
271 -13 291 0 13 8 16 57 20 307 l5 298 34 3 c77 8 62 26 309 -383 63 -104
125 -200 139 -212 23 -22 33 -23 161 -23 149 0 182 5 182 26 0 8 -81 143 -181
300 -99 156 -179 291 -176 298 3 7 30 25 61 41 106 54 197 171 227 295 19 77
16 240 -5 320 -51 190 -191 320 -376 349 -95 16 -683 14 -698 -1z m597 -269
c71 -15 112 -46 144 -108 22 -44 27 -68 27 -126 0 -58 -5 -82 -27 -126 -24
-46 -37 -58 -85 -82 -48 -25 -71 -29 -171 -34 -63 -3 -126 -3 -141 1 l-26 6 0
234 c0 178 3 236 13 239 23 10 216 7 266 -4z"/>
<path d="M12000 2725 c-10 -12 -5 -30 28 -98 22 -45 127 -260 233 -477 l194
-395 3 -315 c2 -204 7 -319 14 -327 15 -19 281 -18 296 0 7 9 12 121 14 328
l3 314 146 300 c81 165 186 380 234 478 72 146 85 180 75 192 -10 12 -41 15
-160 15 -127 0 -149 -2 -162 -17 -12 -14 -215 -458 -275 -600 -7 -18 -17 -33
-21 -33 -4 0 -71 142 -147 316 -78 176 -147 320 -157 325 -9 5 -82 9 -161 9
-116 0 -147 -3 -157 -15z"/>
<path d="M5895 2718 c-3 -7 -4 -373 -3 -813 l3 -800 157 -3 157 -3 7 26 c3 14
5 250 2 525 -2 336 0 500 7 499 5 0 117 -143 248 -317 131 -174 308 -409 395
-522 l157 -205 153 -3 152 -3 0 805 c0 508 -4 807 -10 811 -13 8 -286 9 -299
1 -8 -5 -11 -165 -11 -532 0 -288 -3 -524 -6 -524 -7 0 -23 19 -116 141 -36
48 -108 143 -160 209 -199 260 -382 500 -464 608 l-85 112 -140 0 c-102 0
-141 -3 -144 -12z"/>
<path d="M8800 1629 l-52 -82 16 -35 c17 -35 224 -392 383 -659 95 -160 127
-190 191 -180 25 4 48 18 70 42 26 29 32 43 32 81 0 25 -5 55 -11 67 -10 19
-228 347 -487 732 -40 61 -77 111 -82 113 -4 2 -31 -34 -60 -79z"/>
</g>
</svg>
